<svg width="24" height="24" viewBox="0 0 24 24" fill="none" xmlns="http://www.w3.org/2000/svg">
<path fill-rule="evenodd" clip-rule="evenodd" d="M11.8912 3.9806C11.9044 3.53897 12.273 3.19161 12.7147 3.20475C18.3131 3.37138 22.7999 7.96158 22.7999 13.6C22.7999 19.3438 18.1437 24 12.4 24C6.65622 24 2 19.3438 2 13.6C2 10.7219 3.17021 8.11554 5.05885 6.2334C5.37181 5.92153 5.87834 5.9224 6.19022 6.23536C6.50209 6.54831 6.50122 7.05484 6.18826 7.36672C4.58854 8.96093 3.59999 11.1643 3.59999 13.6C3.59999 18.4601 7.53987 22.4 12.4 22.4C17.2601 22.4 21.1999 18.4601 21.1999 13.6C21.1999 8.82929 17.4033 4.945 12.6671 4.80404C12.2254 4.7909 11.8781 4.42223 11.8912 3.9806Z" fill="#06222B"/>
<path fill-rule="evenodd" clip-rule="evenodd" d="M16.0708 9.25464C15.7089 9.50806 15.2101 9.4201 14.9567 9.05818L11.7446 4.47094C11.4912 4.10902 11.5792 3.61018 11.9411 3.35676L16.5283 0.144747C16.8903 -0.108675 17.3891 -0.0207167 17.6425 0.341206C17.8959 0.703129 17.808 1.20196 17.4461 1.45538L13.5141 4.20854L16.2673 8.14046C16.5207 8.50238 16.4328 9.00121 16.0708 9.25464Z" fill="#06222B"/>
</svg>
