<svg width="24" height="24" viewBox="0 0 24 25" fill="none" xmlns="http://www.w3.org/2000/svg">
  <path fill-rule="evenodd" clip-rule="evenodd" d="M6.58075 24.1519C6.46502 24.1519 6.35403 24.1059 6.27219 24.024L0.127808 17.8797C0.0459739 17.7978 0 17.6868 0 17.5711V6.7326C0 6.61687 0.0459739 6.50588 0.127808 6.42405L6.27219 0.279663C6.35403 0.197829 6.46502 0.151855 6.58075 0.151855H17.4193C17.535 0.151855 17.646 0.197829 17.7278 0.279663L23.8722 6.42405C23.954 6.50588 24 6.61687 24 6.7326V17.5711C24 17.6868 23.954 17.7978 23.8722 17.8797L17.7278 24.024C17.646 24.1059 17.535 24.1519 17.4193 24.1519H6.58075ZM11.7091 5.75195C11.4913 5.75195 11.2829 5.84078 11.132 5.99792C10.9812 6.15506 10.9009 6.36693 10.9098 6.58458L11.2007 13.7119C11.2182 14.1406 11.5709 14.4792 12 14.4792C12.4292 14.4792 12.7819 14.1406 12.7994 13.7119L13.0903 6.58458C13.0992 6.36693 13.0189 6.15506 12.868 5.99792C12.7172 5.84078 12.5088 5.75195 12.2909 5.75195H11.7091ZM12 18.552C12.6025 18.552 13.0909 18.0635 13.0909 17.461C13.0909 16.8585 12.6025 16.3701 12 16.3701C11.3975 16.3701 10.9091 16.8585 10.9091 17.461C10.9091 18.0635 11.3975 18.552 12 18.552Z" fill="#D05C5C"/>
</svg>
