<svg width="25" height="24" viewBox="0 0 25 24" fill="none" xmlns="http://www.w3.org/2000/svg">
<rect x="0.5" width="24" height="24" rx="12" fill="#8A979B"/>
<path fill-rule="evenodd" clip-rule="evenodd" d="M6.10004 11.9996C6.10004 11.705 6.33882 11.4663 6.63337 11.4663L18.3667 11.4663C18.6612 11.4663 18.9 11.705 18.9 11.9996C18.9 12.2941 18.6612 12.5329 18.3667 12.5329L6.63337 12.5329C6.33882 12.5329 6.10004 12.2941 6.10004 11.9996Z" fill="white"/>
<path fill-rule="evenodd" clip-rule="evenodd" d="M12.5 18.3996C12.2055 18.3996 11.9667 18.1608 11.9667 17.8663L11.9667 6.13294C11.9667 5.83839 12.2055 5.59961 12.5 5.59961C12.7946 5.59961 13.0334 5.83839 13.0334 6.13294L13.0334 17.8663C13.0334 18.1608 12.7946 18.3996 12.5 18.3996Z" fill="white"/>
</svg>
